<svg id="visual" viewBox="0 0 675 900" width="675" height="900" xmlns="http://www.w3.org/2000/svg" xmlns:xlink="http://www.w3.org/1999/xlink" version="1.1"><path d="M271 900L355 900L355 825L276 825L276 750L283 750L283 675L331 675L331 600L375 600L375 525L222 525L222 450L333 450L333 375L253 375L253 300L265 300L265 225L332 225L332 150L372 150L372 75L277 75L277 0L675 0L675 75L675 75L675 150L675 150L675 225L675 225L675 300L675 300L675 375L675 375L675 450L675 450L675 525L675 525L675 600L675 600L675 675L675 675L675 750L675 750L675 825L675 825L675 900L675 900Z" fill="#c1a57b"></path><path d="M437 900L307 900L307 825L414 825L414 750L308 750L308 675L414 675L414 600L415 600L415 525L372 525L372 450L321 450L321 375L399 375L399 300L443 300L443 225L446 225L446 150L365 150L365 75L338 75L338 0L675 0L675 75L675 75L675 150L675 150L675 225L675 225L675 300L675 300L675 375L675 375L675 450L675 450L675 525L675 525L675 600L675 600L675 675L675 675L675 750L675 750L675 825L675 825L675 900L675 900Z" fill="#a0876a"></path><path d="M448 900L461 900L461 825L487 825L487 750L471 750L471 675L498 675L498 600L485 600L485 525L470 525L470 450L440 450L440 375L507 375L507 300L447 300L447 225L470 225L470 150L483 150L483 75L460 75L460 0L675 0L675 75L675 75L675 150L675 150L675 225L675 225L675 300L675 300L675 375L675 375L675 450L675 450L675 525L675 525L675 600L675 600L675 675L675 675L675 750L675 750L675 825L675 825L675 900L675 900Z" fill="#7f6b58"></path><path d="M548 900L549 900L549 825L547 825L547 750L558 750L558 675L511 675L511 600L572 600L572 525L579 525L579 450L509 450L509 375L529 375L529 300L570 300L570 225L517 225L517 150L545 150L545 75L515 75L515 0L675 0L675 75L675 75L675 150L675 150L675 225L675 225L675 300L675 300L675 375L675 375L675 450L675 450L675 525L675 525L675 600L675 600L675 675L675 675L675 750L675 750L675 825L675 825L675 900L675 900Z" fill="#5e5147"></path></svg>