<svg id="visual" viewBox="0 0 675 900" width="675" height="900" xmlns="http://www.w3.org/2000/svg" xmlns:xlink="http://www.w3.org/1999/xlink" version="1.1"><path d="M246 900L353 900L353 825L231 825L231 750L343 750L343 675L380 675L380 600L367 600L367 525L248 525L248 450L256 450L256 375L233 375L233 300L342 300L342 225L274 225L274 150L239 150L239 75L248 75L248 0L675 0L675 75L675 75L675 150L675 150L675 225L675 225L675 300L675 300L675 375L675 375L675 450L675 450L675 525L675 525L675 600L675 600L675 675L675 675L675 750L675 750L675 825L675 825L675 900L675 900Z" fill="#c1a57b"></path><path d="M321 900L332 900L332 825L364 825L364 750L408 750L408 675L400 675L400 600L328 600L328 525L433 525L433 450L413 450L413 375L390 375L390 300L332 300L332 225L382 225L382 150L437 150L437 75L433 75L433 0L675 0L675 75L675 75L675 150L675 150L675 225L675 225L675 300L675 300L675 375L675 375L675 450L675 450L675 525L675 525L675 600L675 600L675 675L675 675L675 750L675 750L675 825L675 825L675 900L675 900Z" fill="#a0876a"></path><path d="M469 900L468 900L468 825L454 825L454 750L425 750L425 675L496 675L496 600L446 600L446 525L487 525L487 450L416 450L416 375L429 375L429 300L426 300L426 225L423 225L423 150L496 150L496 75L465 75L465 0L675 0L675 75L675 75L675 150L675 150L675 225L675 225L675 300L675 300L675 375L675 375L675 450L675 450L675 525L675 525L675 600L675 600L675 675L675 675L675 750L675 750L675 825L675 825L675 900L675 900Z" fill="#7f6b58"></path><path d="M578 900L502 900L502 825L578 825L578 750L519 750L519 675L539 675L539 600L518 600L518 525L509 525L509 450L558 450L558 375L557 375L557 300L513 300L513 225L520 225L520 150L507 150L507 75L534 75L534 0L675 0L675 75L675 75L675 150L675 150L675 225L675 225L675 300L675 300L675 375L675 375L675 450L675 450L675 525L675 525L675 600L675 600L675 675L675 675L675 750L675 750L675 825L675 825L675 900L675 900Z" fill="#5e5147"></path></svg>